<?xml version="1.0" standalone="no"?>
<!DOCTYPE svg PUBLIC "-//W3C//DTD SVG 20010904//EN"
 "http://www.w3.org/TR/2001/REC-SVG-20010904/DTD/svg10.dtd">
<svg version="1.0" xmlns="http://www.w3.org/2000/svg"
 width="700.000000pt" height="700.000000pt" viewBox="0 0 700.000000 700.000000"
 preserveAspectRatio="xMidYMid meet">
<metadata>
Created by potrace 1.11, written by Peter Selinger 2001-2013
</metadata>
<g transform="translate(0.000000,700.000000) scale(0.100000,-0.100000)"
fill="#000000" stroke="none">
<path d="M1206 6966 c-20 -18 -36 -37 -37 -42 0 -5 -2 -16 -4 -24 -7 -34 -37
-211 -50 -295 -8 -49 -23 -137 -33 -195 l-18 -105 -204 -5 c-224 -5 -238 -9
-265 -66 -13 -27 -15 -107 -15 -521 0 -466 1 -489 20 -520 32 -54 47 -57 257
-58 106 -1 194 -3 197 -6 6 -6 13 -48 21 -134 3 -38 8 -83 10 -100 5 -35 12
-99 20 -170 3 -27 8 -68 11 -90 2 -22 7 -60 9 -85 3 -25 8 -61 10 -80 3 -19 7
-61 11 -92 l6 -58 -29 -1 c-15 -1 -40 0 -54 1 -14 0 -44 -6 -67 -15 -69 -28
-83 -84 -58 -225 3 -14 10 -63 16 -110 6 -47 13 -96 15 -110 2 -14 9 -63 15
-110 6 -47 13 -101 16 -120 15 -107 25 -179 30 -215 2 -22 6 -51 9 -65 2 -14
6 -50 10 -80 7 -62 9 -74 25 -185 7 -44 13 -89 15 -100 1 -11 5 -45 9 -75 4
-30 9 -66 11 -80 2 -14 7 -43 9 -65 5 -34 38 -278 51 -370 2 -16 7 -52 10 -80
3 -27 10 -75 15 -105 5 -30 12 -77 15 -105 3 -27 8 -61 10 -75 2 -14 6 -47 10
-75 3 -27 8 -61 10 -75 2 -14 9 -63 15 -110 19 -141 21 -154 38 -189 18 -40
62 -61 126 -61 l44 0 7 -57 c4 -32 9 -74 11 -93 2 -19 6 -53 9 -75 2 -22 7
-62 10 -90 3 -27 8 -63 10 -80 2 -16 7 -61 10 -100 4 -38 8 -77 10 -87 2 -9 7
-48 10 -85 4 -37 8 -79 10 -93 2 -14 7 -50 10 -80 3 -30 10 -89 15 -130 5 -41
12 -102 15 -135 3 -33 8 -71 10 -85 3 -14 7 -56 11 -95 14 -163 34 -207 103
-224 20 -5 810 -8 1796 -7 1420 1 1765 4 1786 15 45 23 61 66 75 208 1 17 5
49 8 70 3 21 8 66 11 101 4 35 8 71 10 80 1 9 6 51 10 92 4 41 8 82 10 90 2 8
6 44 9 80 4 36 9 81 11 100 3 19 7 55 10 80 4 42 7 67 20 180 3 25 8 65 11 90
3 25 7 61 10 80 2 19 6 62 9 95 3 33 8 69 10 80 2 11 4 32 4 48 1 26 3 27 51
27 76 0 124 32 137 90 4 16 37 245 48 325 7 57 13 99 20 153 8 50 54 387 59
426 2 17 13 99 25 181 11 83 23 173 26 200 3 28 8 61 10 75 8 43 17 109 30
215 11 80 18 132 21 149 2 11 6 40 9 65 3 25 7 55 9 66 4 23 19 133 21 155 2
25 17 133 21 155 2 11 6 38 9 60 2 22 13 105 24 185 28 196 27 226 -13 265
-17 16 -72 37 -92 35 -11 -1 -36 -2 -57 -1 -37 1 -38 2 -33 29 3 15 8 57 11
93 3 36 7 76 10 88 2 13 7 49 10 80 4 31 10 92 16 136 5 44 11 103 14 130 4
28 8 66 10 85 3 19 7 64 11 100 3 36 8 67 10 70 3 2 92 4 199 5 180 0 196 2
222 21 57 42 56 36 55 559 0 264 -2 487 -4 495 -7 28 -38 67 -64 78 -16 8 -94
12 -219 12 l-194 0 -11 58 c-15 75 -21 110 -36 207 -23 155 -56 335 -64 360
-6 17 -23 39 -38 50 -27 20 -45 20 -2284 22 l-2257 3 -35 -34z m4409 -215 c4
-14 23 -125 55 -321 5 -30 12 -72 16 -92 l7 -38 -2197 0 -2196 0 5 23 c2 12 7
40 10 62 3 22 17 105 30 185 30 176 33 195 34 196 1 0 953 0 2116 0 1914 0
2115 -1 2120 -15z m565 -1032 l0 -349 -22 0 c-31 -1 -5263 -1 -5309 0 l-36 0
0 343 c0 208 4 344 9 348 6 4 1213 6 2684 6 l2674 0 0 -348z m-486 -629 c-3
-25 -7 -56 -9 -70 -3 -14 -7 -54 -10 -90 -6 -62 -12 -115 -20 -170 -2 -14 -6
-56 -10 -95 -3 -38 -8 -83 -10 -100 -7 -55 -14 -120 -21 -180 -3 -33 -7 -61
-9 -63 -7 -8 -4208 -3 -4215 5 -5 4 -11 46 -15 93 -4 47 -8 87 -10 90 -1 3 -6
34 -9 70 -4 36 -8 79 -10 95 -2 17 -7 59 -11 95 -4 36 -9 79 -11 95 -2 17 -6
55 -10 85 -3 30 -9 82 -14 115 -4 33 -4 62 0 65 5 3 996 5 2204 5 l2196 0 -6
-45z m110 -1009 c7 -1 6 -25 -9 -121 -2 -14 -9 -63 -15 -110 -6 -47 -13 -100
-16 -117 -2 -18 -6 -50 -9 -70 -6 -50 -13 -99 -20 -148 -3 -22 -8 -58 -11 -80
-2 -22 -7 -51 -9 -65 -4 -30 -22 -157 -30 -220 -4 -25 -8 -56 -10 -70 -2 -14
-18 -131 -35 -260 -17 -129 -33 -246 -35 -260 -3 -14 -9 -61 -15 -105 -6 -44
-13 -91 -15 -105 -2 -14 -6 -50 -10 -80 -3 -30 -10 -80 -15 -110 -6 -30 -12
-71 -14 -90 -11 -94 -18 -144 -21 -159 -1 -9 -6 -45 -10 -81 -4 -36 -12 -68
-17 -71 -13 -8 -3988 -8 -3989 0 0 3 -2 15 -4 26 -5 28 -14 93 -20 140 -7 57
-55 405 -60 434 -3 14 -7 52 -11 85 -3 34 -7 63 -9 66 -2 3 -6 34 -10 70 -3
36 -8 72 -10 80 -2 8 -7 35 -10 60 -10 92 -27 213 -61 460 -4 25 -8 54 -9 65
-2 11 -6 43 -10 70 -3 28 -8 65 -11 84 -2 19 -6 46 -8 60 -7 41 -15 102 -21
151 -6 46 -14 106 -20 150 -3 14 -7 45 -10 70 -2 25 -9 74 -14 110 -6 36 -12
83 -15 105 l-5 40 2307 -1 c1269 -1 2311 -2 2316 -3z m-518 -2579 c-2 -9 -7
-48 -11 -87 -4 -38 -8 -82 -10 -98 -2 -15 -6 -55 -10 -90 -3 -34 -8 -73 -10
-87 -2 -14 -7 -50 -10 -80 -4 -30 -8 -68 -10 -85 -2 -16 -6 -61 -10 -100 -3
-38 -8 -77 -10 -85 -2 -8 -7 -46 -10 -85 -4 -38 -8 -79 -10 -91 -2 -11 -6 -52
-10 -90 -4 -38 -9 -76 -10 -85 -2 -9 -6 -52 -10 -95 -4 -43 -11 -86 -15 -94
-7 -13 -199 -15 -1642 -13 -898 1 -1636 2 -1639 2 -7 1 -16 55 -25 148 -3 35
-7 71 -8 80 -2 10 -7 47 -11 83 -3 36 -8 76 -10 90 -2 14 -6 54 -10 90 -4 36
-8 76 -10 90 -2 14 -6 50 -10 80 -7 63 -12 107 -19 165 -3 22 -8 64 -11 93
-11 109 -16 158 -20 182 -7 50 -18 161 -16 173 0 4 806 7 1790 7 1695 0 1790
-1 1787 -18z"/>
</g>
</svg>
