<svg width="19px" height="17px" viewBox="0 0 19 17" version="1.1" xmlns="http://www.w3.org/2000/svg" xmlns:xlink="http://www.w3.org/1999/xlink">
    <defs></defs>
    <g id="Symbols" stroke="none" stroke-width="1" fill="none" fill-rule="evenodd">
        <g id="insta-stats-dark" transform="translate(-301.000000, -17.000000)" fill="#000000">
            <g id="stats">
                <path d="M301,34 L304,34 L304,24 L301,24 L301,34 L301,34 Z M317.5,23 L312.551563,23.0000001 L313.328,19.104 L313.352,18.848 C313.352,18.52 313.216,18.216 313,18 L312,17 L306.475125,23.2672393 C306.179125,23.5552393 306.003125,23.9552393 306.003125,24.3952393 L306.003125,32.3952393 C306.003125,33.2752393 306.723125,33.9952393 307.603125,33.9952393 L314.803125,33.9952393 C315.467125,33.9952393 316.035125,33.5952393 316.275125,33.0192393 L318.691125,27.3792393 C318.763125,27.1952393 318.803125,27.0032393 318.803125,26.7952393 L319.1,24.672 L319.1,24.6 C319.1,23.72 318.38,23 317.5,23 Z" id="Shape"></path>
            </g>
        </g>
    </g>
</svg>
